<svg width="25" height="25" viewBox="0 0 25 25" fill="none" xmlns="http://www.w3.org/2000/svg">
<path fill-rule="evenodd" clip-rule="evenodd" d="M19.9609 15.1448C18.8659 14.476 17.455 14.6445 16.547 15.5515L15.4743 16.6244C11.611 15.6738 9.23276 13.3188 8.36773 9.53318L9.44886 8.45205C10.3559 7.54504 10.5244 6.13409 9.85542 5.03909C9.2274 4.00969 8.32224 2.52839 7.5912 1.33148C7.14742 0.604199 6.39429 0.120491 5.54848 0.0195888C4.70267 -0.0813243 3.85669 0.211288 3.25366 0.813469L1.08584 2.98129C0.204667 3.86246 -0.175173 5.12697 0.0760773 6.34813V6.35185C2.19657 16.4808 8.36851 22.6747 18.6324 24.8992C18.6332 24.8992 18.6343 24.9002 18.6351 24.9002C19.8618 25.1624 21.1375 24.7852 22.0241 23.8976C22.6531 23.2789 23.4685 22.4627 24.1855 21.7456C24.7887 21.1434 25.0813 20.2976 24.9804 19.4518C24.8795 18.606 24.3958 17.8527 23.6685 17.4081C22.4716 16.6781 20.9903 15.7729 19.9609 15.1447L19.9609 15.1448Z" fill="#E2DCC8"/>
</svg>
